HIERARCHY
ROOT Pelvis
{
	OFFSET 0.000000 0.000000 0.000000
	CHANNELS 6 Xposition Yposition Zposition Xrotation Yrotation Zrotation
	JOINT LeftUpLeg_virtual
	{
		OFFSET 0.000000 0.000000 0.000000
		CHANNELS 3 Xrotation Yrotation Zrotation
		JOINT LeftUpLeg
		{
			OFFSET 18.735201 -5.666702 -4.541200
			CHANNELS 3 Xrotation Yrotation Zrotation
			JOINT LeftLeg
			{
				OFFSET -0.021200 -31.938179 0.493100
				CHANNELS 3 Xrotation Yrotation Zrotation
				JOINT LeftFoot
				{
					OFFSET 0.021200 -31.938179 -4.336299
					CHANNELS 3 Xrotation Yrotation Zrotation
					JOINT LeftToeBase
					{
						OFFSET 0.943001 -26.722000 15.023500
						CHANNELS 3 Xrotation Yrotation Zrotation
						End Site
						{
							OFFSET 0 0 0
						}
					}
				}
			}
		}
	}
	JOINT RightUpLeg_virtual
	{
		OFFSET 0.000000 0.000000 0.000000
		CHANNELS 3 Xrotation Yrotation Zrotation
		JOINT RightUpLeg
		{
			OFFSET -18.735201 -5.666702 -4.541200
			CHANNELS 3 Xrotation Yrotation Zrotation
			JOINT RightLeg
			{
				OFFSET 0.018946 -31.938133 0.493100
				CHANNELS 3 Xrotation Yrotation Zrotation
				JOINT RightFoot
				{
					OFFSET -0.018946 -31.938126 -4.336299
					CHANNELS 3 Xrotation Yrotation Zrotation
					JOINT RightToeBase
					{
						OFFSET -0.943001 -26.722004 15.023500
						CHANNELS 3 Xrotation Yrotation Zrotation
						End Site
						{
							OFFSET 0 0 0
						}
					}
				}
			}
		}
	}
	JOINT Hips_virtual
	{
		OFFSET 0.000000 0.000000 0.000000
		CHANNELS 3 Xrotation Yrotation Zrotation
		JOINT Hips
		{
			OFFSET -0.000000 -0.000000 -0.000000
			CHANNELS 3 Xrotation Yrotation Zrotation
			JOINT Spine
			{
				OFFSET 0.000000 10.199997 -0.299500
				CHANNELS 3 Xrotation Yrotation Zrotation
				JOINT Spine1
				{
					OFFSET 0.000000 11.900002 -1.516600
					CHANNELS 3 Xrotation Yrotation Zrotation
					JOINT Spine2
					{
						OFFSET 0.000000 13.600006 -2.842500
						CHANNELS 3 Xrotation Yrotation Zrotation
						JOINT Neck_virtual
						{
							OFFSET 0.000000 0.000000 0.000000
							CHANNELS 3 Xrotation Yrotation Zrotation
							JOINT Neck
							{
								OFFSET 0.000000 9.624100 -2.890100
								CHANNELS 3 Xrotation Yrotation Zrotation
								JOINT Head
								{
									OFFSET 0.000000 14.068802 -1.351900
									CHANNELS 3 Xrotation Yrotation Zrotation
									End Site
									{
										OFFSET 0 0 0
									}
								}
							}
						}
						JOINT LeftShoulder_virtual
						{
							OFFSET 0.000000 0.000000 0.000000
							CHANNELS 3 Xrotation Yrotation Zrotation
							JOINT LeftShoulder
							{
								OFFSET 15.263000 10.923401 -0.547700
								CHANNELS 3 Xrotation Yrotation Zrotation
								JOINT LeftArm
								{
									OFFSET 25.438599 -2.830597 -13.032500
									CHANNELS 3 Xrotation Yrotation Zrotation
									JOINT LeftForeArm
									{
										OFFSET 29.960503 0.000000 0.000000
										CHANNELS 3 Xrotation Yrotation Zrotation
										JOINT LeftHand
										{
											OFFSET 27.849251 0.000000 0.000000
											CHANNELS 3 Xrotation Yrotation Zrotation
											End Site
											{
												OFFSET 0 0 0
											}
										}
									}
								}
							}
						}
						JOINT RightShoulder_virtual
						{
							OFFSET 0.000000 0.000000 0.000000
							CHANNELS 3 Xrotation Yrotation Zrotation
							JOINT RightShoulder
							{
								OFFSET -15.263000 10.923401 -0.547700
								CHANNELS 3 Xrotation Yrotation Zrotation
								JOINT RightArm
								{
									OFFSET -25.438599 -2.830597 -13.032500
									CHANNELS 3 Xrotation Yrotation Zrotation
									JOINT RightForeArm
									{
										OFFSET -29.960503 0.000000 0.000000
										CHANNELS 3 Xrotation Yrotation Zrotation
										JOINT RightHand
										{
											OFFSET -27.849251 0.000000 0.000000
											CHANNELS 3 Xrotation Yrotation Zrotation
											End Site
											{
												OFFSET 0 0 0
											}
										}
									}
								}
							}
						}
					}
				}
			}
		}
	}
}
MOTION
Frames: 9
Frame Time: 0.03333333
-1.701215 93.711182 2.385733 0.000000 0.000000 0.000000 2.912646 -28.993296 1.190029 -19.101865 17.302000 13.857274 23.893342 12.123083 -1.504226 -6.536314 -3.224737 -8.273300 0.000000 0.000000 0.000000 2.912646 -28.993296 1.190029 -12.321327 -0.374935 -11.129923 16.871301 9.899840 0.865162 -8.231157 -1.387057 8.929080 0.000000 0.000000 0.000000 2.912646 -28.993296 1.190029 0.000000 -0.000002 0.000000 7.835981 -0.360002 -2.682270 1.099251 -0.880569 2.383463 0.000000 0.000000 0.000000 1.108681 -0.590438 2.446367 -0.922893 3.567107 -1.380662 0.000000 0.000000 0.000000 1.108681 -0.590438 2.446367 -0.057388 -8.759438 -0.061007 -55.250828 0.329468 -41.449358 11.584353 -65.827301 13.005486 0.000000 0.000000 0.000000 1.108681 -0.590438 2.446367 4.849302 7.760144 5.560459 -0.933456 -2.176910 61.845642 11.299283 18.943571 -3.987595 0.000000 0.000000 0.000000 
-1.807050 93.442116 2.620098 0.000000 0.000000 0.000000 3.089464 -27.951598 1.311001 -20.104585 16.679597 13.980158 25.281238 11.295125 -1.696048 -7.121712 -3.026771 -8.175008 0.000000 0.000000 0.000000 3.089464 -27.951598 1.311001 -12.796867 -0.286936 -11.186801 18.947450 9.437400 0.808850 -9.793828 -1.906664 8.751751 0.000000 0.000000 0.000000 3.089464 -27.951598 1.311001 0.000000 -0.000002 0.000000 7.585933 -0.120981 -2.955340 1.179881 -0.587865 2.428844 0.000000 0.000000 0.000000 1.179493 -0.331361 2.447601 -1.016271 3.460489 -1.349995 0.000000 0.000000 0.000000 1.179493 -0.331361 2.447601 -0.156524 -7.613165 -0.517560 -54.992855 2.359938 -39.858863 14.183475 -68.506538 15.203462 0.000000 0.000000 0.000000 1.179493 -0.331361 2.447601 4.812134 8.119673 5.688570 -0.408744 -2.451836 61.988509 12.244016 18.822497 -4.559257 0.000000 0.000000 0.000000 
-1.893411 93.176643 2.877537 0.000000 0.000000 0.000000 3.262192 -26.745631 1.387544 -21.171191 16.057985 14.090434 26.638677 10.292212 -1.864330 -7.666096 -2.827232 -8.003508 0.000000 0.000000 0.000000 3.262192 -26.745631 1.387544 -13.016784 -0.289026 -11.195876 20.681208 9.315086 0.781554 -11.277384 -2.892092 8.498224 0.000000 0.000000 0.000000 3.262192 -26.745631 1.387544 0.000000 0.000001 0.000000 7.263284 0.176794 -3.128077 1.305098 -0.239086 2.460831 0.000000 0.000000 0.000000 1.292177 -0.018794 2.426597 -1.123928 3.314639 -1.308722 0.000000 0.000000 0.000000 1.292177 -0.018794 2.426597 -0.257676 -6.543713 -1.038125 -54.949606 4.638162 -38.362673 19.162473 -71.200877 19.813616 0.000000 0.000000 0.000000 1.292177 -0.018794 2.426597 4.776427 8.473872 5.863059 0.334831 -2.740972 62.151183 13.457520 18.694455 -5.471674 0.000000 0.000000 0.000000 
-1.960334 92.915558 3.155231 0.000000 0.000000 0.000000 3.425646 -25.378654 1.423767 -22.285751 15.467423 14.235922 28.007087 10.587967 -1.914797 -8.183356 -4.110474 -8.116488 0.000000 0.000000 0.000000 3.425646 -25.378654 1.423767 -13.009792 -0.371288 -11.179547 22.135777 8.889355 0.737092 -12.694918 -3.714898 8.339722 0.000000 0.000000 0.000000 3.425646 -25.378654 1.423767 0.000000 -0.000001 0.000000 6.887899 0.518794 -3.213194 1.460489 0.152812 2.478274 0.000000 0.000000 0.000000 1.433639 0.334555 2.384510 -1.239427 3.134929 -1.257176 0.000000 0.000000 0.000000 1.433639 0.334555 2.384510 -0.348973 -5.538380 -1.589103 -55.141569 7.041875 -36.915458 26.186532 -73.767047 26.509839 0.000000 0.000000 0.000000 1.433639 0.334555 2.384510 4.736008 8.868327 6.075512 1.246716 -3.107694 62.321255 14.852969 18.537197 -6.632865 0.000000 0.000000 0.000000 
-1.988597 92.662498 3.472105 0.000000 0.000000 0.000000 3.570121 -23.694068 1.387683 -23.534969 14.951081 14.360679 29.314776 9.788383 -1.991056 -8.615029 -4.713181 -7.908223 0.000000 0.000000 0.000000 3.570121 -23.694068 1.387683 -12.653319 -0.582604 -11.147498 23.231982 7.212442 0.613926 -14.025767 -3.603877 8.610983 0.000000 0.000000 0.000000 3.570121 -23.694068 1.387683 0.000000 0.000001 0.000000 6.423920 0.935147 -3.134513 1.662624 0.618028 2.465393 0.000000 0.000000 0.000000 1.619631 0.757045 2.301279 -1.364190 2.892622 -1.186066 0.000000 0.000000 0.000000 1.619631 0.757045 2.301279 -0.430485 -4.648620 -2.168048 -55.715824 9.563787 -35.523783 35.115375 -76.191245 35.108699 0.000000 0.000000 0.000000 1.619631 0.757045 2.301279 4.681180 9.389219 6.355681 2.453035 -3.699838 62.477892 16.528074 18.324173 -8.202589 0.000000 0.000000 0.000000 
-1.969418 92.427940 3.828245 0.000000 0.000000 0.000000 3.671485 -21.637780 1.287551 -24.937507 14.862461 14.588188 30.500421 8.592705 -2.069814 -8.913468 -5.748097 -7.486243 0.000000 0.000000 0.000000 3.671485 -21.637780 1.287551 -11.872451 -0.934515 -11.031549 23.913903 6.220766 0.549544 -15.315876 -4.479106 8.667587 0.000000 0.000000 0.000000 3.671485 -21.637780 1.287551 0.000000 0.000003 0.000000 5.929750 1.391485 -2.919691 1.872735 1.128198 2.415222 0.000000 0.000000 0.000000 1.814841 1.220437 2.175421 -1.482287 2.589665 -1.091140 0.000000 0.000000 0.000000 1.814841 1.220437 2.175421 -0.501997 -3.925656 -2.745013 -56.807346 12.189019 -34.155614 45.666180 -78.571955 45.231715 0.000000 0.000000 0.000000 1.814841 1.220437 2.175421 4.608716 10.027446 6.678369 3.684507 -4.594958 62.606484 18.200576 17.978074 -9.869378 0.000000 0.000000 0.000000 
-1.858706 92.237991 4.254684 0.000000 0.000000 0.000000 3.675394 -18.864136 1.096675 -26.364995 14.676890 14.645531 31.435464 6.978465 -2.180355 -8.909008 -6.951956 -6.757067 0.000000 0.000000 0.000000 3.675394 -18.864136 1.096675 -10.291253 -1.483822 -10.815020 23.880981 4.690898 0.453401 -16.500572 -5.520860 8.899334 0.000000 0.000000 0.000000 3.675394 -18.864136 1.096675 0.000000 -0.000001 0.000000 5.439742 1.892929 -2.493704 2.064607 1.698941 2.291585 0.000000 0.000000 0.000000 1.996165 1.736917 1.970748 -1.576450 2.169272 -0.946513 0.000000 0.000000 0.000000 1.996165 1.736917 1.970748 -0.558685 -3.354601 -3.234195 -58.366623 14.790544 -32.753516 58.171984 -80.910052 57.133183 0.000000 0.000000 0.000000 1.996165 1.736917 1.970748 4.515291 10.793698 7.036816 4.746196 -5.952376 62.668263 19.585608 17.472123 -11.371079 0.000000 0.000000 0.000000 
-1.682618 92.091568 4.718739 0.000000 0.000000 0.000000 3.610672 -15.585419 0.896086 -27.490050 13.659769 14.170517 32.037354 5.737351 -2.280798 -8.583048 -8.036993 -6.031723 0.000000 0.000000 0.000000 3.610672 -15.585419 0.896086 -8.085865 -2.181017 -10.480459 23.205636 2.991253 0.350843 -17.523849 -6.878646 9.162423 0.000000 0.000000 0.000000 3.610672 -15.585419 0.896086 0.000000 0.000001 0.000000 4.965410 2.401808 -2.030635 2.224746 2.288986 2.128772 0.000000 0.000000 0.000000 2.153548 2.268640 1.729204 -1.663646 1.658305 -0.758285 0.000000 0.000000 0.000000 2.153548 2.268640 1.729204 -0.607518 -2.771322 -3.598756 -59.863357 16.994627 -31.538200 76.083717 -81.599027 74.685059 0.000000 0.000000 0.000000 2.153548 2.268640 1.729204 4.421516 11.502896 7.301260 5.685954 -7.409105 62.768523 20.298019 17.195358 -12.000307 0.000000 0.000000 0.000000 
-1.461668 91.968735 5.193712 0.000000 0.000000 0.000000 3.518842 -11.991701 0.704349 -28.362086 11.851090 13.224768 32.402878 4.929449 -2.365368 -8.033411 -8.924241 -5.411286 0.000000 0.000000 0.000000 3.518842 -11.991701 0.704349 -5.432707 -2.985503 -9.977938 21.948917 1.146774 0.241203 -18.324701 -8.388207 9.435535 0.000000 0.000000 0.000000 3.518842 -11.991701 0.704349 0.000000 -0.000001 0.000000 4.483679 2.920561 -1.565849 2.369283 2.891455 1.948091 0.000000 0.000000 0.000000 2.300657 2.810873 1.471403 -1.744946 1.091950 -0.543955 0.000000 0.000000 0.000000 2.300657 2.810873 1.471403 -0.659531 -2.009297 -3.785522 -61.433365 19.092933 -30.053481 95.294478 -83.190584 93.074175 0.000000 0.000000 0.000000 2.300657 2.810873 1.471403 4.328661 12.165035 7.524710 6.548156 -8.872228 62.861503 20.623408 17.103987 -12.133723 0.000000 0.000000 0.000000 
